<?xml version="1.0" encoding="UTF-8"?>
<svg id="_レイヤー_1" data-name="レイヤー 1" xmlns="http://www.w3.org/2000/svg" viewBox="0 0 512 512">
  <defs>
    <style>
      .cls-1 {
        fill: none;
      }

      .cls-1, .cls-2, .cls-3, .cls-4, .cls-5, .cls-6, .cls-7 {
        stroke-width: 0px;
      }

      .cls-2 {
        fill: #f0842e;
      }

      .cls-3 {
        fill: #000;
      }

      .cls-4 {
        fill: #364c9f;
      }

      .cls-5 {
        fill: #040000;
        fill-rule: evenodd;
      }

      .cls-6 {
        fill: #545251;
      }

      .cls-7, .cls-8 {
        fill: #fff;
      }

      .cls-8 {
        font-family: Helvetica-Bold, Helvetica;
        font-size: 72px;
        font-weight: 700;
        letter-spacing: .05em;
      }
    </style>
  </defs>
  <g id="TheDesk">
    <g>
      <rect class="cls-7" x="129.02" y="179.92" width="291.97" height="149.89"/>
      <rect class="cls-7" x="132.36" y="76.25" width="88.89" height="360.71"/>
      <rect class="cls-7" x="208.24" y="127.74" width="105.41" height="256.28"/>
    </g>
    <rect class="cls-6" x="84.81" y="16.62" width="56.25" height="477.12"/>
    <rect class="cls-2" x="238.84" y="-72.56" width="56.25" height="388.19" transform="translate(28.23 291.96) rotate(-60)"/>
    <rect class="cls-4" x="72.87" y="360.39" width="388.19" height="56.25" transform="translate(-158.5 185.54) rotate(-30)"/>
    <path id="cat" class="cls-5" d="M199.06,323h57.06c0-8.11-.58-9.72-14.01-9.72,2.15-6.44,10.87-22.01,15.72-22.01,4.29,0,9.4.24,9.4,10.02,0,11.11,18.7,29.02,23.23,21.71,6.76-10.89-11.61-7.57-11.61-33.83,0-35.93,20.97-30.81,20.97-51,0-10.1-2.79-11.46-2.79-18.68,0-9.54,8.41-8.99,6.77-16.9-1.13-5.46-2.01-9.85-2.67-16.46-.47-4.69-.62-9.69-5.49-9.49-5.72.24-7.89,10.31-16.79,11.03-8.88.72-16.45-7.56-19.88-6.38-3.41,1.17-2.33,10.41-.32,16.98,3.18,10.32,10.1,23.73-2.52,25.75s-34.34,4.04-49.99,24.74c-15.65,20.7-15.07,45-21.21,52.51-20.58,25.22-41.67,14.86-41.67,35.85,0,9.39,15.92,16.16,18.44,13.13,2.52-3.03-21.45-12.06,5.38-22.72,22.92-9.11,24.96-10.97,31.99-4.55Z"/>
    <rect class="cls-1" width="512" height="512"/>
  </g>
  <rect class="cls-3" x="256" y="384.02" width="177.48" height="99.98" rx="12" ry="12"/>
  <text class="cls-8" transform="translate(274 459)"><tspan x="0" y="0">V25</tspan></text>
</svg>